ply
format ascii 1.0
comment Created by Blender 2.70 (sub 0) - www.blender.org, source file: ''
element vertex 72
property float x
property float y
property float z
property float nx
property float ny
property float nz
property uchar red
property uchar green
property uchar blue
element face 18
property list uchar uint vertex_indices
end_header
-0.024325 0.024325 -0.024325 -0.000000 -0.000000 -1.000000 0 25 255
0.024325 0.024325 -0.024325 -0.000000 -0.000000 -1.000000 0 25 255
0.024325 -0.024325 -0.024325 -0.000000 -0.000000 -1.000000 0 25 255
-0.024325 -0.024325 -0.024325 -0.000000 -0.000000 -1.000000 0 25 255
-0.024325 -0.024325 -0.024325 -1.000000 -0.000000 0.000000 0 25 255
-0.024325 -0.024325 0.998972 -1.000000 -0.000000 0.000000 0 25 255
-0.024325 0.024325 0.998972 -1.000000 -0.000000 0.000000 0 25 255
-0.024325 0.024325 -0.024325 -1.000000 -0.000000 0.000000 0 25 255
-0.024325 -0.024325 0.998972 0.000000 0.000000 1.000000 0 25 255
0.024325 -0.024325 0.998972 0.000000 0.000000 1.000000 0 25 255
0.024325 0.024325 0.998972 0.000000 0.000000 1.000000 0 25 255
-0.024325 0.024325 0.998972 0.000000 0.000000 1.000000 0 25 255
0.024325 0.024325 -0.024325 1.000000 0.000000 -0.000000 0 25 255
0.024325 0.024325 0.998972 1.000000 0.000000 -0.000000 0 25 255
0.024325 -0.024325 0.998972 1.000000 0.000000 -0.000000 0 25 255
0.024325 -0.024325 -0.024325 1.000000 0.000000 -0.000000 0 25 255
0.024325 0.024325 -0.024325 -0.000000 1.000000 0.000000 0 25 255
-0.024325 0.024325 -0.024325 -0.000000 1.000000 0.000000 0 25 255
-0.024325 0.024325 0.998972 -0.000000 1.000000 0.000000 0 25 255
0.024325 0.024325 0.998972 -0.000000 1.000000 0.000000 4 28 255
0.024325 -0.024325 0.998972 0.000000 -1.000000 -0.000000 0 25 255
-0.024325 -0.024325 0.998972 0.000000 -1.000000 -0.000000 0 25 255
-0.024325 -0.024325 -0.024325 0.000000 -1.000000 -0.000000 0 25 255
0.024325 -0.024325 -0.024325 0.000000 -1.000000 -0.000000 0 25 255
0.024325 -0.024325 0.024325 -0.000000 -1.000000 0.000000 0 255 18
-0.024325 -0.024325 0.024325 -0.000000 -1.000000 0.000000 0 255 18
-0.024325 -0.024325 -0.024325 -0.000000 -1.000000 0.000000 0 255 18
0.024325 -0.024325 -0.024325 -0.000000 -1.000000 0.000000 0 255 18
-0.024325 -0.024325 0.024325 -1.000000 0.000000 0.000000 0 255 18
-0.024325 0.998972 0.024325 -1.000000 0.000000 0.000000 0 255 18
-0.024325 0.998972 -0.024325 -1.000000 0.000000 0.000000 0 255 18
-0.024325 -0.024325 -0.024325 -1.000000 0.000000 0.000000 0 255 18
-0.024325 0.998972 0.024325 0.000000 1.000000 -0.000000 0 255 18
0.024325 0.998972 0.024325 0.000000 1.000000 -0.000000 0 255 18
0.024325 0.998972 -0.024325 0.000000 1.000000 -0.000000 0 255 18
-0.024325 0.998972 -0.024325 0.000000 1.000000 -0.000000 0 255 18
0.024325 0.998972 0.024325 1.000000 -0.000000 0.000000 0 255 18
0.024325 -0.024325 0.024325 1.000000 -0.000000 0.000000 0 255 18
0.024325 -0.024325 -0.024325 1.000000 -0.000000 0.000000 0 255 18
0.024325 0.998972 -0.024325 1.000000 -0.000000 0.000000 0 255 18
0.024325 -0.024325 -0.024325 0.000000 -0.000000 -1.000000 0 255 18
-0.024325 -0.024325 -0.024325 0.000000 -0.000000 -1.000000 0 255 18
-0.024325 0.998972 -0.024325 0.000000 -0.000000 -1.000000 0 255 18
0.024325 0.998972 -0.024325 0.000000 -0.000000 -1.000000 0 255 18
0.024325 0.998972 0.024325 0.000000 -0.000000 1.000000 0 255 18
-0.024325 0.998972 0.024325 0.000000 -0.000000 1.000000 0 255 18
-0.024325 -0.024325 0.024325 0.000000 -0.000000 1.000000 0 255 18
0.024325 -0.024325 0.024325 0.000000 -0.000000 1.000000 0 255 18
-0.024325 -0.024325 0.024325 -1.000000 0.000000 0.000000 255 0 2
-0.024325 0.024325 0.024325 -1.000000 0.000000 0.000000 255 0 2
-0.024325 0.024325 -0.024325 -1.000000 0.000000 0.000000 255 0 2
-0.024325 -0.024325 -0.024325 -1.000000 0.000000 0.000000 255 0 2
-0.024325 0.024325 0.024325 0.000000 1.000000 -0.000000 255 0 2
0.998972 0.024325 0.024325 0.000000 1.000000 -0.000000 255 0 2
0.998972 0.024325 -0.024325 0.000000 1.000000 -0.000000 255 0 2
-0.024325 0.024325 -0.024325 0.000000 1.000000 -0.000000 255 0 2
0.998972 0.024325 0.024325 1.000000 0.000000 -0.000000 255 0 2
0.998972 -0.024325 0.024325 1.000000 0.000000 -0.000000 255 0 2
0.998972 -0.024325 -0.024325 1.000000 0.000000 -0.000000 255 0 2
0.998972 0.024325 -0.024325 1.000000 0.000000 -0.000000 255 0 2
0.998972 -0.024325 0.024325 0.000000 -1.000000 0.000000 255 0 2
-0.024325 -0.024325 0.024325 0.000000 -1.000000 0.000000 255 0 2
-0.024325 -0.024325 -0.024325 0.000000 -1.000000 0.000000 255 0 2
0.998972 -0.024325 -0.024325 0.000000 -1.000000 0.000000 255 0 2
-0.024325 -0.024325 -0.024325 -0.000000 0.000000 -1.000000 255 0 2
-0.024325 0.024325 -0.024325 -0.000000 0.000000 -1.000000 255 0 2
0.998972 0.024325 -0.024325 -0.000000 0.000000 -1.000000 255 0 2
0.998972 -0.024325 -0.024325 -0.000000 0.000000 -1.000000 255 0 2
0.998972 -0.024325 0.024325 -0.000000 0.000000 1.000000 255 0 2
0.998972 0.024325 0.024325 -0.000000 0.000000 1.000000 255 0 2
-0.024325 0.024325 0.024325 -0.000000 0.000000 1.000000 255 3 5
-0.024325 -0.024325 0.024325 -0.000000 0.000000 1.000000 255 0 2
4 0 1 2 3
4 4 5 6 7
4 8 9 10 11
4 12 13 14 15
4 16 17 18 19
4 20 21 22 23
4 24 25 26 27
4 28 29 30 31
4 32 33 34 35
4 36 37 38 39
4 40 41 42 43
4 44 45 46 47
4 48 49 50 51
4 52 53 54 55
4 56 57 58 59
4 60 61 62 63
4 64 65 66 67
4 68 69 70 71
